<svg xmlns="http://www.w3.org/2000/svg" width="1200" height="320" viewBox="0 0 1200 320">
  <rect width="1200" height="320" fill="none" />
  <g stroke-width="2" stroke-linecap="round">
    <g stroke="#22c55e" fill="#22c55e">
      <line x1="40" y1="60" x2="40" y2="150" />
      <rect x="32" y="85" width="16" height="45" rx="3" />

      <line x1="100" y1="70" x2="100" y2="170" />
      <rect x="92" y="105" width="16" height="35" rx="3" />

      <line x1="220" y1="80" x2="220" y2="200" />
      <rect x="212" y="120" width="16" height="50" rx="3" />

      <line x1="340" y1="50" x2="340" y2="160" />
      <rect x="332" y="80" width="16" height="55" rx="3" />

      <line x1="520" y1="90" x2="520" y2="210" />
      <rect x="512" y="125" width="16" height="60" rx="3" />

      <line x1="680" y1="70" x2="680" y2="185" />
      <rect x="672" y="110" width="16" height="45" rx="3" />

      <line x1="820" y1="60" x2="820" y2="170" />
      <rect x="812" y="95" width="16" height="50" rx="3" />

      <line x1="980" y1="80" x2="980" y2="205" />
      <rect x="972" y="120" width="16" height="55" rx="3" />

      <line x1="1120" y1="65" x2="1120" y2="175" />
      <rect x="1112" y="98" width="16" height="50" rx="3" />
    </g>

    <g stroke="#ef4444" fill="#ef4444">
      <line x1="160" y1="55" x2="160" y2="175" />
      <rect x="152" y="90" width="16" height="55" rx="3" />

      <line x1="280" y1="75" x2="280" y2="205" />
      <rect x="272" y="135" width="16" height="45" rx="3" />

      <line x1="400" y1="60" x2="400" y2="180" />
      <rect x="392" y="110" width="16" height="35" rx="3" />

      <line x1="460" y1="85" x2="460" y2="220" />
      <rect x="452" y="150" width="16" height="40" rx="3" />

      <line x1="600" y1="70" x2="600" y2="190" />
      <rect x="592" y="120" width="16" height="45" rx="3" />

      <line x1="740" y1="55" x2="740" y2="170" />
      <rect x="732" y="85" width="16" height="55" rx="3" />

      <line x1="900" y1="75" x2="900" y2="200" />
      <rect x="892" y="135" width="16" height="40" rx="3" />

      <line x1="1040" y1="60" x2="1040" y2="185" />
      <rect x="1032" y="105" width="16" height="55" rx="3" />
    </g>
  </g>
</svg>
